<svg xmlns="http://www.w3.org/2000/svg" width="18" height="18" viewBox="0 0 21 18" fill="none">
  <path d="M5.6001 15V17" stroke="#3B3A5D" stroke-width="1.5" stroke-linecap="round" stroke-linejoin="round"/>
  <path d="M14.6001 15V17" stroke="#3B3A5D" stroke-width="1.5" stroke-linecap="round" stroke-linejoin="round"/>
  <path d="M4.6001 8V2.94444C4.6001 2.42875 4.75813 1.93417 5.03944 1.56951C5.32074 1.20486 5.70227 1 6.1001 1C6.49792 1 6.87945 1.20486 7.16076 1.56951C7.44206 1.93417 7.6001 2.42875 7.6001 2.94444" stroke="#3B3A5D" stroke-width="1.5" stroke-linecap="round" stroke-linejoin="round"/>
  <path d="M16.6001 7H11.6001V10H16.6001V7Z" stroke="#3B3A5D" stroke-width="1.5" stroke-linecap="round" stroke-linejoin="round"/>
  <path d="M16.3858 8H18.9572C19.1277 8 19.2913 8.06705 19.4118 8.18639C19.5324 8.30573 19.6001 8.46759 19.6001 8.63636V11.1818C19.6001 12.1945 19.1937 13.1656 18.4704 13.8817C17.747 14.5977 16.7659 15 15.743 15H5.45724C4.43426 15 3.45318 14.5977 2.72983 13.8817C2.00647 13.1656 1.6001 12.1945 1.6001 11.1818V8.63636C1.6001 8.46759 1.66783 8.30573 1.78839 8.18639C1.90895 8.06705 2.07246 8 2.24295 8H11.243" stroke="#3B3A5D" stroke-width="1.5" stroke-linecap="round" stroke-linejoin="round"/>
</svg>