<svg xmlns="http://www.w3.org/2000/svg" width="18" height="18" viewBox="0 0 22 16" fill="none">
<path d="M1.6001 6.8335H20.2668" stroke="#3B3A5D" stroke-width="1.5" stroke-linecap="round" stroke-linejoin="round"/>
<path d="M19.1001 12.6665V14.4165C19.1001 14.5712 19.0263 14.7196 18.8951 14.829C18.7638 14.9384 18.5857 14.9998 18.4001 14.9998H16.3001C16.1144 14.9998 15.9364 14.9384 15.8051 14.829C15.6738 14.7196 15.6001 14.5712 15.6001 14.4165V12.6665" stroke="#3B3A5D" stroke-width="1.5" stroke-linecap="round" stroke-linejoin="round"/>
<path d="M6.26685 12.6665V14.4165C6.26685 14.5712 6.1931 14.7196 6.06182 14.829C5.93054 14.9384 5.7525 14.9998 5.56685 14.9998H3.46685C3.28119 14.9998 3.10315 14.9384 2.97187 14.829C2.8406 14.7196 2.76685 14.5712 2.76685 14.4165V12.6665" stroke="#3B3A5D" stroke-width="1.5" stroke-linecap="round" stroke-linejoin="round"/>
<path d="M5.1001 9.1665H7.43343" stroke="#3B3A5D" stroke-width="1.5" stroke-linecap="round" stroke-linejoin="round"/>
<path d="M14.4333 9.1665H16.7667" stroke="#3B3A5D" stroke-width="1.5" stroke-linecap="round" stroke-linejoin="round"/>
<path d="M19.1002 7.17647L16.5566 1.41176C16.5038 1.28981 16.417 1.18596 16.3068 1.11285C16.1965 1.03974 16.0676 1.00053 15.9356 1H5.93143C5.79947 1.00053 5.67052 1.03974 5.56026 1.11285C5.45001 1.18596 5.3632 1.28981 5.31042 1.41176L2.76685 7.17647V12.6667H19.1002V7.17647Z" stroke="#3B3A5D" stroke-width="1.5" stroke-linecap="round" stroke-linejoin="round"/>
</svg>